<svg width="24" height="24" viewBox="0 0 24 24" fill="none" xmlns="http://www.w3.org/2000/svg">
<path d="M1.87904 17.878C1.01021 19.0777 0.38663 20.437 0.0440362 21.878C-0.0214057 22.1649 -0.0129734 22.4637 0.0685436 22.7465C0.150061 23.0292 0.301996 23.2867 0.510125 23.4947C0.718254 23.7027 0.975769 23.8546 1.25856 23.9359C1.54135 24.0173 1.84017 24.0256 2.12704 23.96C3.56588 23.6169 4.92305 22.9937 6.12104 22.126C6.68436 21.5635 7.00114 20.8002 7.0017 20.0042C7.00227 19.2081 6.68656 18.4444 6.12404 17.881C5.56151 17.3177 4.79825 17.0009 4.00216 17.0004C3.20607 16.9998 2.44236 17.3155 1.87904 17.878ZM4.70704 20.707C3.90104 21.2233 3.02557 21.6219 2.10704 21.891C2.37652 20.9726 2.77517 20.0972 3.29104 19.291C3.47964 19.1089 3.73224 19.0081 3.99444 19.0104C4.25663 19.0126 4.50745 19.1178 4.69285 19.3032C4.87826 19.4886 4.98343 19.7394 4.98571 20.0016C4.98799 20.2638 4.88719 20.5164 4.70504 20.705L4.70704 20.707ZM18 8.50003C18 9.16307 17.7366 9.79896 17.2678 10.2678C16.799 10.7366 16.1631 11 15.5 11C14.837 11 14.2011 10.7366 13.7323 10.2678C13.2634 9.79896 13 9.16307 13 8.50003C13 7.83699 13.2634 7.2011 13.7323 6.73226C14.2011 6.26342 14.837 6.00003 15.5 6.00003C16.1631 6.00003 16.799 6.26342 17.2678 6.73226C17.7366 7.2011 18 7.83699 18 8.50003ZM20.972 2.95354e-05C18.5923 -0.0141171 16.2413 0.520356 14.1015 1.56196C11.9618 2.60356 10.0909 4.12427 8.63404 6.00603C7.04517 6.06096 5.4868 6.45763 4.06504 7.16903C2.41625 7.92826 1.07028 9.2193 0.243036 10.835C0.0489056 11.2858 -0.0298939 11.7778 0.0137531 12.2667C0.0574002 12.7555 0.222119 13.2258 0.493036 13.635C0.766539 14.0543 1.14032 14.3987 1.58053 14.6371C2.02073 14.8754 2.51345 15.0002 3.01404 15H5.50004C6.42692 15.0045 7.31456 15.3747 7.96997 16.0301C8.62538 16.6855 8.99557 17.5732 9.00004 18.5V20.986C8.99968 21.4864 9.12414 21.979 9.36213 22.4192C9.60012 22.8594 9.94414 23.2333 10.363 23.507C10.7723 23.7779 11.2426 23.9427 11.7314 23.9863C12.2203 24.03 12.7123 23.9512 13.163 23.757C14.7788 22.9298 16.0698 21.5838 16.829 19.935C17.5404 18.5133 17.9371 16.9549 17.992 15.366C19.8768 13.9055 21.3994 12.0299 22.4414 9.88524C23.4834 7.74053 24.0167 5.38441 24 3.00003C23.9989 2.60404 23.9195 2.21217 23.7666 1.8469C23.6137 1.48163 23.3901 1.15013 23.1088 0.871425C22.8275 0.592718 22.494 0.372278 22.1273 0.222745C21.7606 0.0732124 21.368 -0.00247268 20.972 2.95354e-05ZM4.34604 13H3.01404C2.84493 13.0013 2.67826 12.9597 2.52961 12.8791C2.38096 12.7985 2.25518 12.6815 2.16404 12.539C2.0745 12.4067 2.01977 12.254 2.00491 12.0949C1.99005 11.9359 2.01555 11.7756 2.07904 11.629C2.72339 10.4482 3.73568 9.50994 4.96204 8.95703C5.59567 8.63933 6.26465 8.39765 6.95504 8.23703C5.96107 9.75338 5.08868 11.346 4.34604 13ZM15.046 19.038C14.4931 20.2641 13.5554 21.2763 12.375 21.921C12.2283 21.9846 12.0679 22.0101 11.9086 21.9953C11.7494 21.9804 11.5965 21.9257 11.464 21.836C11.3216 21.7449 11.2046 21.6191 11.124 21.4705C11.0433 21.3218 11.0017 21.1551 11.003 20.986V19.654C12.657 18.9114 14.2497 18.039 15.766 17.045C15.6045 17.7355 15.3618 18.4045 15.043 19.038H15.046ZM15.181 15.018C13.8278 15.9579 12.3993 16.7844 10.91 17.489C10.7067 16.3971 10.1775 15.3923 9.3921 14.607C8.60672 13.8216 7.60196 13.2924 6.51004 13.089C7.21522 11.6011 8.04203 10.1739 8.98204 8.82203C12.35 4.12403 15.84 2.14703 21 2.00003C21.2605 1.99993 21.5107 2.10143 21.6974 2.28296C21.8842 2.46448 21.9927 2.7117 22 2.97203C21.853 8.16003 19.876 11.65 15.178 15.018H15.181Z" fill="white"/>
</svg>
